<svg id="Layer_1" data-name="Layer 1" xmlns="http://www.w3.org/2000/svg" viewBox="0 0 100 92.74"><defs><style>.cls-1{fill:#fff}.cls-2{fill:#0093b2}.cls-3{fill:#c5cfda}</style></defs><title>email</title><path class="cls-1" d="M100 43.43v51.29a1.66 1.66 0 0 1-1.66 1.66H1.66A1.66 1.66 0 0 1 0 94.72V43.43A1.65 1.65 0 0 1 .74 42l12.77-8.46V5.28a1.66 1.66 0 0 1 1.66-1.66h69.66a1.66 1.66 0 0 1 1.66 1.66v28.3L99.26 42a1.66 1.66 0 0 1 .74 1.38zm-3.31 48.2V46.18L58.6 66.38zm-10.2-49.86h6.36l-6.36-4.22zM7.15 93.06h85.7L50 64.66zm79.34-45.22l5.2-2.76h-5.2zm-3.31 1.76V6.94H16.82V49.6l27.72 14.7 4.54-3a1.66 1.66 0 0 1 1.83 0l4.54 3zm-79.86 42L41.4 66.38 3.31 46.18zm10.2-43.79v-2.73H8.31zm0-6.07v-4.18l-6.37 4.21zm0 0" transform="translate(0 -3.63)"/><path class="cls-2" d="M96.69 46.18v45.45L58.6 66.38zm0 0" transform="translate(0 -3.63)"/><path class="cls-3" d="M92.85 41.77h-6.36v-4.22zm0 51.29H7.15L50 64.66zm-1.16-47.98l-5.2 2.76v-2.76zm0 0" transform="translate(0 -3.63)"/><path class="cls-1" d="M64.85 31.84v1.22a5.81 5.81 0 0 1-10.75 3.06 7.15 7.15 0 1 1 2.44-5.38v2.32a2.5 2.5 0 0 0 5 0v-1.22a11.54 11.54 0 0 0-23.08 0v.49A11.55 11.55 0 0 0 50 43.87h13.2a1.66 1.66 0 1 1 0 3.31H50a14.87 14.87 0 0 1-14.85-14.85v-.49a14.85 14.85 0 0 1 29.7 0zm-11.62-1.1a3.84 3.84 0 1 0-3.84 3.84 3.84 3.84 0 0 0 3.84-3.84zm0 0" transform="translate(0 -3.63)"/><path class="cls-2" d="M41.4 66.38L3.31 91.63V46.18zm0 0" transform="translate(0 -3.63)"/><path class="cls-3" d="M13.51 45.08v2.76l-5.2-2.76zm0-7.52v4.21H7.15zm0 0" transform="translate(0 -3.63)"/></svg>