<svg id="Layer_1" xmlns="http://www.w3.org/2000/svg" viewBox="0 0 100 100"><style>.st0{fill:#d1dde6}.st1{fill:#5b6770}.st2{fill:#c5cfda}.st3{fill:#ff5050}.st4{fill:#fff082}.st5{fill:#a0ffb4}</style><path class="st0" d="M23.9 52.6l-9.5 14.6 18.4 18.4 14.6-9.5z"/><path class="st1" d="M78.6 51.6L48.4 21.4l-26.7 4.2L5.1 42.2l21.6.9 30.2 30.2.9 21.6 16.6-16.6z"/><path class="st2" d="M98.4 1.6c-17.9-5-34.5 4.3-42.3 12.1L18.9 50.9l30.2 30.2 37.2-37.2c7.8-7.8 17-24.4 12.1-42.3zM78.6 29.9c-4.7 0-8.5-3.8-8.5-8.5s3.8-8.5 8.5-8.5 8.5 3.8 8.5 8.5-3.8 8.5-8.5 8.5z"/><path class="st3" d="M.9 84.2C0 83.3 0 81.9.9 81l8.8-8.8c.9-.9 2.4-.9 3.3 0 .9.9.9 2.4 0 3.3l-8.8 8.8c-1 .8-2.4.8-3.3-.1zm14.9 14.9c-.9-.9-.9-2.4 0-3.3l8.8-8.8c.9-.9 2.4-.9 3.3 0 .9.9.9 2.4 0 3.3L19 99.1c-.9.9-2.3.9-3.2 0z"/><path class="st4" d="M4.6 95.1c-.9-.9-.9-2.4 0-3.3L17 79.5c.9-.9 2.4-.9 3.3 0 .9.9.9 2.4 0 3.3L7.9 95.1c-.9.9-2.4.9-3.3 0z"/><path class="st5" d="M29.8 70.2c-.9-.9-.9-2.4 0-3.3l32-32c.9-.9 2.4-.9 3.3 0 .9.9.9 2.4 0 3.3l-32 32c-.9.9-2.4.9-3.3 0z"/></svg>