<svg id="Layer_1" xmlns="http://www.w3.org/2000/svg" viewBox="0 0 100 100"><style>.st0{fill:#e8f3f7}.st1{fill:#5b6770}.st2{fill:#0093b2}.st3{fill:#c5cfda}.st4{fill:#fff082}.st5{fill:#a0ffb4}.st6{fill:#b2babf}.st7{fill:#fff}</style><path class="st0" d="M97.6 77.9H2.4V30.4c0-2.9 2.4-5.3 5.3-5.3h24.8v48.8h61V25.2l.5.2c2.1.8 3.5 2.7 3.5 5v47.5z"/><path class="st0" d="M98.1 78.4H1.9v-48c0-3.2 2.6-5.8 5.8-5.8H33v48.8h60V24.5l1.2.4c2.3.8 3.9 3 3.9 5.4v48.1zm-95.2-1H97v-47c0-2-1.2-3.7-3.1-4.4v48.4H32V25.6H7.7c-2.6 0-4.8 2.1-4.8 4.8v47z"/><path class="st1" d="M17.5 29.4c-6 0-10.9 4.9-10.9 10.9s4.9 10.9 10.9 10.9 10.9-4.9 10.9-10.9-4.9-10.9-10.9-10.9zm2.1 7.6c0 1.2-1 2.1-2.1 2.1-1.2 0-2.1-1-2.1-2.1s1-2.1 2.1-2.1c1.2 0 2.1.9 2.1 2.1zm1.3 11.2c-1.1.5-2.2.7-3.4.7-1.2 0-2.3-.2-3.4-.7l-.4-.2.1-.4c.4-1.7 1.9-3 3.7-3 1.8 0 3.3 1.3 3.7 3l.1.4-.4.2zm2.9-2.1l-.5.6-.3-.7c-1-2.2-3.1-3.6-5.5-3.6S13 43.8 12 46l-.3.7-.5-.6c-1.5-1.6-2.3-3.7-2.3-5.9 0-4.3 3.3-8 7.6-8.5l.2 1c-2 .4-3.5 2.2-3.5 4.3 0 2.4 2 4.4 4.4 4.4s4.4-2 4.4-4.4c0-2.1-1.5-3.9-3.5-4.3l.2-1c4.3.5 7.6 4.2 7.6 8.5-.2 2.2-1 4.3-2.5 5.9zm-6.3 6c-6 0-10.9 4.9-10.9 10.9s4.9 10.9 10.9 10.9S28.4 69 28.4 63s-4.9-10.9-10.9-10.9zm2.1 7.7c0 1.2-1 2.1-2.1 2.1-1.2 0-2.1-1-2.1-2.1s1-2.1 2.1-2.1c1.2-.1 2.1.9 2.1 2.1zM20.9 71c-1.1.5-2.2.7-3.4.7-1.2 0-2.3-.2-3.4-.7l-.4-.2.1-.4c.4-1.7 1.9-3 3.7-3 1.8 0 3.3 1.3 3.7 3l.1.4-.4.2zm2.9-2.1l-.5.6-.3-.8c-1-2.2-3.1-3.6-5.5-3.6S13 66.5 12 68.7l-.3.7-.5-.6c-1.5-1.6-2.3-3.7-2.3-5.9 0-4.3 3.3-8 7.6-8.5l.2 1c-2 .4-3.5 2.2-3.5 4.3 0 2.4 2 4.4 4.4 4.4s4.4-2 4.4-4.4c0-2.1-1.5-3.9-3.5-4.3l.2-1c4.3.5 7.6 4.2 7.6 8.5-.2 2.3-1 4.3-2.5 6z"/><path class="st2" d="M20.9 48.2c-1.1.5-2.2.7-3.4.7-1.2 0-2.3-.2-3.4-.7l-.4-.2.1-.4c.4-1.7 1.9-3 3.7-3 1.8 0 3.3 1.3 3.7 3l.1.4-.4.2zm0 22.7c-1.1.5-2.2.7-3.4.7-1.2 0-2.3-.2-3.4-.7l-.4-.2.1-.4c.4-1.7 1.9-3 3.7-3 1.8 0 3.3 1.3 3.7 3l.1.4-.4.2z"/><path class="st3" d="M97.6 82.5c0 2.9-2.4 5.3-5.3 5.3H7.7c-2.9 0-5.3-2.4-5.3-5.3v-2h95.1v2z"/><path class="st3" d="M92.3 88.2H7.7c-3.2 0-5.8-2.6-5.8-5.8v-2.5H98v2.5c.1 3.2-2.5 5.8-5.7 5.8zM2.9 80.9v1.5c0 2.6 2.1 4.8 4.8 4.8h84.6c2.6 0 4.8-2.1 4.8-4.8v-1.5H2.9z"/><path class="st4" d="M23.8 68.8l-.5.6-.3-.7c-1-2.2-3.1-3.6-5.5-3.6S13 66.5 12 68.7l-.3.7-.5-.6c-1.5-1.6-2.3-3.7-2.3-5.9 0-4.3 3.3-8 7.6-8.5l.2 1c-2 .4-3.5 2.2-3.5 4.3 0 2.4 2 4.4 4.4 4.4s4.4-2 4.4-4.4c0-2.1-1.5-3.9-3.5-4.3l.2-1c4.3.5 7.6 4.2 7.6 8.5-.2 2.2-1 4.3-2.5 5.9z"/><path class="st5" d="M23.8 46.2l-.5.6-.3-.8c-1-2.2-3.1-3.6-5.5-3.6S13 43.9 12 46l-.3.7-.5-.6c-1.5-1.6-2.3-3.7-2.3-5.9 0-4.3 3.3-8 7.6-8.5l.2 1c-2 .4-3.5 2.2-3.5 4.3 0 2.4 2 4.4 4.4 4.4s4.4-2 4.4-4.4c0-2.1-1.5-3.9-3.5-4.3l.2-1c4.3.5 7.6 4.2 7.6 8.5-.2 2.3-1 4.4-2.5 6z"/><path class="st3" d="M93.8 22.9l-.3-.1v-7.5L78.1 0H32.2v22.8H7.7c-4.3 0-7.7 3.5-7.7 7.7v52c0 4.3 3.5 7.7 7.7 7.7h19.9v7.3h-6.5v2.4h57.7v-2.4h-6.5v-7.3h19.9c4.3 0 7.7-3.5 7.7-7.7v-52c.1-3.7-2.5-6.8-6.1-7.6zM69.9 97.6H30.1v-7.3h39.8v7.3zm27.7-15.1c0 2.9-2.4 5.3-5.3 5.3H7.7c-2.9 0-5.3-2.4-5.3-5.3v-2h95.1v2zm0-4.5H2.4V30.5c0-2.9 2.4-5.3 5.3-5.3h24.5V74h61.3V25.3l.5.2c2.1.8 3.5 2.7 3.5 5V78z"/><path class="st6" d="M78.2 0l15.3 15.3H78.2z"/><path class="st2" d="M62 9.8l-4 2.9V9.5H42v16.1h16v-9.1l5.8-4.1L62 9.8zm-7 5l-3.2 2.3-2.3-2.3-2.1 2.2 4.1 4.1 3.5-2.5v3.9H45v-10h10v2.3zm7 14.5l-4 2.9V29H42v16h16v-9.1l5.8-4.1-1.8-2.5zm-7 5l-3.2 2.3-2.3-2.3-2.2 2.2 4.1 4.1 3.5-2.5V42H45V32h10v2.3zm7 14.5l-4 2.9v-3.2H42v16.1h16v-9.1l5.7-4.1-1.7-2.6zm-7 5.1l-3.2 2.3-2.3-2.3-2.1 2.1 4.1 4.1 3.5-2.5v3.9H45v-10h10v2.4z"/><path class="st1" d="M65.7 22.4h17.4c.6 0 1.1.5 1.1 1.1v1.1c0 .6-.5 1.1-1.1 1.1H65.7c-.6 0-1.1-.5-1.1-1.1v-1.1c0-.7.5-1.1 1.1-1.1zm0 19.5h17.4c.6 0 1.1.5 1.1 1.1v1.1c0 .6-.5 1.1-1.1 1.1H65.7c-.6 0-1.1-.5-1.1-1.1V43c0-.7.5-1.1 1.1-1.1zm0 19.5h17.4c.6 0 1.1.5 1.1 1.1v1.1c0 .6-.5 1.1-1.1 1.1H65.7c-.6 0-1.1-.5-1.1-1.1v-1.1c0-.6.5-1.1 1.1-1.1zm0-6.5h17.4c.6 0 1.1.5 1.1 1.1v1.1c0 .6-.5 1.1-1.1 1.1H65.7c-.6 0-1.1-.5-1.1-1.1V56c0-.6.5-1.1 1.1-1.1zm0-19.5h17.4c.6 0 1.1.5 1.1 1.1v1.1c0 .6-.5 1.1-1.1 1.1H65.7c-.6 0-1.1-.5-1.1-1.1v-1.1c0-.7.5-1.1 1.1-1.1zm0-19.5h4.4c.6 0 1.1.5 1.1 1.1v1c0 .6-.5 1.1-1.1 1.1h-4.4c-.6 0-1.1-.5-1.1-1.1v-1.1c0-.6.5-1 1.1-1z"/><path class="st7" d="M55 14.8l-3.2 2.3-2.3-2.3-2.1 2.2 4.1 4.1 3.5-2.5v3.9H45v-10h10zm0 19.3l-3.2 2.3-2.3-2.3-2.1 2.2 4.1 4.1 3.5-2.5v3.9H45v-10h10zm0 19.8l-3.2 2.2-2.3-2.2-2.1 2.1 4.1 4.1 3.5-2.5v3.9H45v-10h10z"/><path class="st3" d="M29.7 89.6H71V98H29.7z"/></svg>