<svg id="Layer_1" xmlns="http://www.w3.org/2000/svg" viewBox="0 0 100 100"><style>.st0{fill:#c5cfda}.st1{fill:#5b6770}.st2{fill:#b8c2cc}.st3{opacity:.8;fill:#fff}.st4{fill:#ff5050}.st5{fill:#fff082}.st6{fill:#a0ffb4}.st7{fill:#0093b2}.st8{opacity:.4}.st9{fill:#fff}</style><path class="st0" d="M96.6 92.2H3.4c-1.9 0-3.4-1.5-3.4-3.4V11.2c0-1.9 1.5-3.4 3.4-3.4h93.1c1.9 0 3.4 1.5 3.4 3.4v77.6c.1 1.9-1.4 3.4-3.3 3.4z"/><path class="st1" d="M96.6 92.2H50V16.4h50v72.4c0 1.9-1.5 3.4-3.4 3.4z"/><path class="st2" d="M100 16.4H0v-5.2c0-1.9 1.5-3.4 3.4-3.4h93.1c1.9 0 3.4 1.5 3.4 3.4v5.2z"/><path class="st3" d="M5.2 14.7H3.4c-1 0-1.7-.8-1.7-1.7v-1.7c0-1 .8-1.7 1.7-1.7h1.7c1 0 1.7.8 1.7 1.7V13c.1.9-.7 1.7-1.6 1.7z"/><path class="st4" d="M82.8 14.7H81c-1 0-1.7-.8-1.7-1.7v-1.7c0-1 .8-1.7 1.7-1.7h1.7c1 0 1.7.8 1.7 1.7V13c.1.9-.7 1.7-1.6 1.7z"/><path class="st5" d="M89.7 14.7H88c-1 0-1.7-.8-1.7-1.7v-1.7c0-1 .8-1.7 1.7-1.7h1.7c1 0 1.7.8 1.7 1.7V13c0 .9-.8 1.7-1.7 1.7z"/><path class="st6" d="M96.6 14.7h-1.7c-1 0-1.7-.8-1.7-1.7v-1.7c0-1 .8-1.7 1.7-1.7h1.7c1 0 1.7.8 1.7 1.7V13c0 .9-.8 1.7-1.7 1.7z"/><path class="st7" d="M28.3 29.5L16.6 41.1c-.6.6-.7 1.6-.1 2.3L50 83.6V28.4H30.7c-.9 0-1.8.4-2.4 1.1z"/><path class="st3" d="M50 28.4L34.5 42.2H50z"/><g class="st8"><path class="st9" d="M34.5 42.2l-5.1-13.5c-.4.2-.8.4-1.1.7L16.6 41.1c-.3.3-.5.7-.5 1.1h18.4zm0 0L50 83.6V42.2z"/></g><path class="st4" d="M62.1 31.9h-3.4c-1 0-1.7-.8-1.7-1.7 0-1 .8-1.7 1.7-1.7h3.4c1 0 1.7.8 1.7 1.7 0 .9-.8 1.7-1.7 1.7zm0 13.8h-3.4c-1 0-1.7-.8-1.7-1.7 0-1 .8-1.7 1.7-1.7h3.4c1 0 1.7.8 1.7 1.7 0 .9-.8 1.7-1.7 1.7z"/><path class="st6" d="M67.2 38.8h-3.4c-1 0-1.7-.8-1.7-1.7s.8-1.7 1.7-1.7h3.4c1 0 1.7.8 1.7 1.7s-.7 1.7-1.7 1.7z"/><path class="st9" d="M91.4 31.9H69c-1 0-1.7-.8-1.7-1.7 0-1 .8-1.7 1.7-1.7h22.4c1 0 1.7.8 1.7 1.7 0 .9-.8 1.7-1.7 1.7z"/><path class="st5" d="M91.4 45.7H69c-1 0-1.7-.8-1.7-1.7 0-1 .8-1.7 1.7-1.7h22.4c1 0 1.7.8 1.7 1.7 0 .9-.8 1.7-1.7 1.7z"/><path class="st0" d="M91.4 38.8H74.1c-1 0-1.7-.8-1.7-1.7s.8-1.7 1.7-1.7h17.2c1 0 1.7.8 1.7 1.7s-.7 1.7-1.6 1.7z"/><path class="st6" d="M67.2 52.6h-3.4c-1 0-1.7-.8-1.7-1.7s.8-1.7 1.7-1.7h3.4c1 0 1.7.8 1.7 1.7s-.7 1.7-1.7 1.7z"/><path class="st0" d="M91.4 52.6H74.1c-1 0-1.7-.8-1.7-1.7s.8-1.7 1.7-1.7h17.2c1 0 1.7.8 1.7 1.7s-.7 1.7-1.6 1.7z"/><path class="st4" d="M62.1 59.5h-3.4c-1 0-1.7-.8-1.7-1.7s.8-1.7 1.7-1.7h3.4c1 0 1.7.8 1.7 1.7s-.8 1.7-1.7 1.7zm0 13.8h-3.4c-1 0-1.7-.8-1.7-1.7 0-1 .8-1.7 1.7-1.7h3.4c1 0 1.7.8 1.7 1.7 0 .9-.8 1.7-1.7 1.7z"/><path class="st6" d="M67.2 66.4h-3.4c-1 0-1.7-.8-1.7-1.7s.8-1.7 1.7-1.7h3.4c1 0 1.7.8 1.7 1.7s-.7 1.7-1.7 1.7z"/><path class="st9" d="M91.4 59.5H69c-1 0-1.7-.8-1.7-1.7S68 56 69 56h22.4c1 0 1.7.8 1.7 1.7s-.8 1.8-1.7 1.8z"/><path class="st5" d="M91.4 73.3H69c-1 0-1.7-.8-1.7-1.7 0-1 .8-1.7 1.7-1.7h22.4c1 0 1.7.8 1.7 1.7 0 .9-.8 1.7-1.7 1.7z"/><path class="st0" d="M91.4 66.4H74.1c-1 0-1.7-.8-1.7-1.7s.8-1.7 1.7-1.7h17.2c1 0 1.7.8 1.7 1.7s-.7 1.7-1.6 1.7z"/><path class="st6" d="M67.2 80.2h-3.4c-1 0-1.7-.8-1.7-1.7 0-1 .8-1.7 1.7-1.7h3.4c1 0 1.7.8 1.7 1.7.1.9-.7 1.7-1.7 1.7z"/><path class="st0" d="M91.4 80.2H74.1c-1 0-1.7-.8-1.7-1.7 0-1 .8-1.7 1.7-1.7h17.2c1 0 1.7.8 1.7 1.7.1.9-.7 1.7-1.6 1.7z"/></svg>