<svg id="Layer_1" data-name="Layer 1" xmlns="http://www.w3.org/2000/svg" viewBox="0 0 81.42 100"><defs><style>.cls-1{fill:#fff;}.cls-2{fill:#0093b2;}.cls-3{fill:#c5cfda;}</style></defs><title>localizacao</title><path class="cls-1" d="M50,100l-1.28-1.16c-1.61-1.46-39.43-36-39.43-58.13a40.71,40.71,0,0,1,81.42,0c0,22.08-37.82,56.67-39.43,58.13ZM50,3.81a36.94,36.94,0,0,0-36.9,36.9C13.1,59,43.35,88.54,50,94.82,56.65,88.54,86.9,59,86.9,40.71A36.94,36.94,0,0,0,50,3.81Z" transform="translate(-9.29)"/><path class="cls-2" d="M73.88,40.71a23.88,23.88,0,0,1-47.76,0,22.77,22.77,0,0,1,4-13.13,2,2,0,0,1,.8-1,24,24,0,0,1,14.53-9.15h.2a15.52,15.52,0,0,1,4.38-.6h1.79c.8,0,1.39.2,2.19.2a24,24,0,0,1,19.5,18.71,1.5,1.5,0,0,0,.2.8C73.68,37.92,73.88,39.32,73.88,40.71Z" transform="translate(-9.29)"/><path class="cls-3" d="M48.81,21.41c0,.8-1.19.8-1.79,1a3.57,3.57,0,0,0-1.39,1,28.48,28.48,0,0,1-3,2.19c-1.19.6-2.79,1-3.58,0a10.72,10.72,0,0,0,5.77-6.37A15.81,15.81,0,0,0,41.44,22c-1.19,1-2.79,2-4,3a6.23,6.23,0,0,0-2.19,4.38A3,3,0,0,0,33.88,27a4.57,4.57,0,0,0-2.79-.8h0A24,24,0,0,1,45.62,17h.2A4.17,4.17,0,0,0,48,20C48.21,20.61,48.81,20.81,48.81,21.41Z" transform="translate(-9.29)"/><path class="cls-3" d="M54,17.23a4.79,4.79,0,0,1,1.59,1.19.69.69,0,0,0,.2.4c0,.4-.8.4-1.19.6-.6.4-.4,1.39.2,1.79s1.39.4,2,.8c.2.2.6.4.4.6,0,.2-.2.2-.2.4-.8.8-1.59,1.79-2.39,2.59l-.6.6a2.52,2.52,0,0,1-1.19.2c-1.59,0-3.38.2-3.78,1.79,0,.4,0,.8-.4,1-.2.2-.6.4-.8.6-.2.4.2,1,.2,1.59.2.8-.8,1.59-1.59,1.39V29.57c0-.2-.2-.2-.4-.2-.8-.2-2-.4-2.59.2a2.12,2.12,0,0,0,.2,2.59c.4.8,1.19,1.59,1.19,2.39,0,.4-.2,1-.6,1-.6.2-1-.6-1.19-1.39a9.15,9.15,0,0,0-.8,5.57c-1.39.4-2.59.6-4,1-.4.2-1,.2-1.39.6a1.89,1.89,0,0,0-.4,1.39,10.6,10.6,0,0,0,1.19,4.78,6,6,0,0,0,1,1.39c1.19,1,3,.4,4.58.8a5.43,5.43,0,0,1,3,2.59A13.87,13.87,0,0,1,47.41,56c.2.6.2,1.19.8,1.59a3.54,3.54,0,0,0,2,.8,5.47,5.47,0,0,0,3.58-.2c1-.6,1.59-1.59,2.39-2,.6-.2,1.39-.2,2.19-.4.6-.2,1.39-.8,1.19-1.39s-1-1.19-.8-1.79a1.83,1.83,0,0,1,1.19-.8,3.73,3.73,0,0,0,2-5.17,1.52,1.52,0,0,1-.4-1c0-1,1.39-1.39,2-2.19.6-.6.6-1.59.8-2.59a2,2,0,0,1,1.39-2.19,2.14,2.14,0,0,1,2.19,1.19,8.68,8.68,0,0,0,1.59,2V37.13a2.14,2.14,0,0,1,.4-1.59c.6-.8,1.79-.6,2.79-.4.4,0,.6.2,1,0A24.69,24.69,0,0,0,54,17.23Zm4.58,15.52h.8a1.55,1.55,0,0,0,.4,1.59l.6.6a1.91,1.91,0,0,1,.4,1.79H59.15c-.4-.2-1-.4-1.19-1a1.49,1.49,0,0,1-.2-1C58,33.94,58,33.15,58.56,32.75Zm-7,8.16a10.67,10.67,0,0,1-2.19-1,6.54,6.54,0,0,0-3.38-.8H44.83c-.4-.2-.8-.4-.8-.8-.2-.4.2-1,.6-1.39a5,5,0,0,0,1.39-.8v-.8a11.37,11.37,0,0,0,3.18,2.19,5.81,5.81,0,0,0,1.79.4h2.59a3.89,3.89,0,0,0,1.39-.2,2.39,2.39,0,0,0,1.59-.4,2,2,0,0,1-.6,1.79,3.85,3.85,0,0,1-1.79,1A3.13,3.13,0,0,1,51.59,40.91Zm9.15,4.78c0,.2-.2.2-.2.4h-.4a3.86,3.86,0,0,1-3-.4c-.4-.2-.6-.8-.8-1.19-.4-.6-.6-1-1-1.59a2,2,0,0,1-.4-1.79h1.39l.2.2c-.2.4,0,.8.4,1.19a4.35,4.35,0,0,0,1,.6c.4.2.6.2,1,.4a5,5,0,0,1,1.39.8A1.23,1.23,0,0,1,60.75,45.69Zm1.79-5.17a.69.69,0,0,1-.4.2A1.63,1.63,0,0,1,60,39.32l.2-.2h2.59a.69.69,0,0,1,.2.4C62.74,39.91,62.74,40.31,62.54,40.51Z" transform="translate(-9.29)"/></svg>