<svg id="Layer_1" xmlns="http://www.w3.org/2000/svg" viewBox="0 0 100 100"><style>.st0{fill:#fff}.st1{opacity:.1;fill:#231f20}.st2{fill:#f0ba7d}.st3{fill:#0093b2}.st4{fill:#fed298}.st5{fill:#666}.st6{fill:#ff5050}.st7{fill:#a0ffb4}.st8{fill:#fff082}</style><path class="st0" d="M63 .5C43.1-2.7 24.5 10.9 21.4 30.7c-2 12.3 2.5 24.1 10.8 32.1l-3 3.7 3.9 3.1L36 66c4.5 3.2 9.8 5.5 15.6 6.4C71.5 75.5 90.2 62 93.3 42.1 96.4 22.2 82.9 3.6 63 .5z"/><circle class="st1" cx="57.5" cy="36.4" r="32.5"/><path class="st2" d="M53.3 36.7h8.3l.7 7 1.2 1 2.5 1.6-8.5 1.6-8.5-1.7 2.5-1.6 1.2-1 .6-6.9z"/><path class="st3" d="M50.7 45.1l-7 2.2-5.2 1.6s-1.6.8-2 3.3c-.5 2.4-.7 4.8-1 8.1 5.6 5.1 13 8.3 21.1 8.5h1.6c8.1-.2 15.5-3.4 21.1-8.5-.4-3.3-.6-5.7-1-8.1-.5-2.5-2-3.3-2-3.3l-7.2-2.3-4.8-1.5c-5.6 3.6-8 3.6-13.6 0z"/><path class="st4" d="M47.8 22.5c0 .6-.2 1.3-.2 1.9-2.2-.4-1.1 6.2.1 7.1.1.1.3-.1.6-.2.4 2.4 4.1 8.9 6.5 11.6.7.8 4.7.7 5.3 0 2.4-2.7 6.1-9.2 6.6-11.6.2.1.5.3.6.2 1.3-.9 2.3-7.5.1-7.1 0-.6-.2-1.3-.2-1.9-.1-5.1-4.8-7.7-9.6-7.7-5 0-9.6 2.6-9.8 7.7z"/><path class="st5" d="M64.5 15.9c.7-.1 3.2.7 3.5 3.4.3 2.7.2 5.1.2 5.1s-1.5.4-1.7 1.9c-.2 1.5-.1 1.5-.1 1.5l-.5-.1-.4-2.6c-2.2-1.4 0-3.4-2.2-3.9-6 4.3-11.3 3.5-13.6 1.5 0 0 .6 2.1.1 2.8-.4.7-.2 1.9-.2 1.9H49s.1-3.1-1.1-3.1C43.3 16.7 58.1 7 64.5 15.9z"/><path class="st0" d="M52.6 42.6c.2 0-2 2.5-2 2.5l1.9 6.4 5-3.7c-2.8-1.4-4.4-3.1-4.9-5.2z"/><path class="st0" d="M62.3 42.6c-.2 0 2 2.5 2 2.5l-1.9 6.4-5-3.7c2.8-1.4 4.5-3.1 4.9-5.2z"/><path class="st3" d="M34.6 70.8l-6.7-5.4c-1-.8-2.5-.7-3.3.4L4.3 90.7c-.8 1-.7 2.5.4 3.3l6.7 5.4c1 .8 2.5.7 3.3-.4l20.2-25.1c.8-.8.7-2.3-.3-3.1z"/><path class="st6" d="M15.4 19.1H18v-2.6h.9v2.6h2.6v.9h-2.6v2.6H18V20h-2.6v-.9z"/><path class="st7" d="M20 7.1h4.7V2.4h1.7v4.7h4.7v1.7h-4.7v4.7h-1.7V8.7H20V7.1z"/><path class="st8" d="M27.2 26.7h3v-3h1.1v3h3v1.1h-3v3h-1.1v-3h-3v-1.1z"/><path class="st6" d="M79.3 61.8h2.5v-2.5h.9v2.5h2.5v.9h-2.5v2.5h-.9v-2.5h-2.5v-.9z"/><path class="st7" d="M86.8 67.9h4v-4h1.4v4h4v1.4h-4v4h-1.4v-4h-4v-1.4z"/><path class="st8" d="M78.1 73.9h1.5v-1.5h.5v1.5h1.5v.5h-1.5v1.5h-.5v-1.5h-1.5v-.5zM32.6 3.6h1.5V2.2h.5v1.5h1.5v.5h-1.5v1.5h-.5V4.2h-1.5v-.6z"/></svg>