<svg id="Layer_1" xmlns="http://www.w3.org/2000/svg" viewBox="0 0 100 100"><style>.st0{fill:#fff}.st1{fill:#0093b2}.st2{fill:#fed298}.st3{fill:#a0ffb4}.st4{fill:#fff082}.st5{fill:#ff5050}</style><path class="st0" d="M51.6 46.4c5.7 0 10.4 4.7 10.4 10.4s-4.7 10.4-10.4 10.4-10.4-4.7-10.4-10.4 4.6-10.4 10.4-10.4z"/><path class="st0" d="M21.8 41.9H9.5v-1.3h12.4V30.2h1.3v21.6h19.6v1.3H21.9v-.6l-.1-10.6zm58.7 0h12.4v-1.3H80.5V30.2h-1.3v21.6H60.6v1.3h19.8v-.6l.1-10.6z"/><path class="st1" d="M51.6 48c1.2 0 2.3.2 3.4.7 1.1.4 2 1.1 2.9 1.9.8.8 1.5 1.8 1.9 2.9.4 1 .7 2.2.7 3.4 0 1.2-.2 2.3-.7 3.4-.4 1.1-1.1 2-1.9 2.9-.8.8-1.8 1.5-2.9 1.9-1 .4-2.2.7-3.4.7-1.2 0-2.3-.2-3.4-.7-1.1-.4-2-1.1-2.9-1.9-.8-.8-1.5-1.8-1.9-2.9-.4-1-.7-2.2-.7-3.4 0-1.2.2-2.3.7-3.4.4-1.1 1.1-2 1.9-2.9.8-.8 1.8-1.5 2.9-1.9 1-.4 2.2-.7 3.4-.7zm-7.2 12.2H47c-.2-.5-.3-.9-.4-1.4-.1-.5-.2-1-.2-1.5h-2.7c0 .5.1 1 .2 1.5.1.4.3.9.5 1.4zm3.5 0h3.2v-2.9h-3.9c0 .5.1 1 .2 1.4.2.5.3 1 .5 1.5zm4.1 0h3.2c.2-.5.4-1 .5-1.5.1-.5.2-1 .2-1.4H52v2.9zm4.2 0h2.5c.2-.5.4-1 .5-1.5.1-.5.2-1 .2-1.5h-2.7c0 .5-.1 1-.2 1.5 0 .5-.2 1-.3 1.5zm2 .9h-2.4c-.1.2-.2.5-.4.7-.2.3-.3.5-.5.8-.3.4-.7.9-1.1 1.3-.2.2-.5.5-.8.7.7-.1 1.3-.3 1.9-.6.8-.4 1.6-.9 2.2-1.6.2-.2.5-.5.7-.8.1-.2.3-.3.4-.5zm-3.5 0H52v3.2c.4-.3.7-.6 1-.9.4-.4.8-.9 1.1-1.3.1-.2.3-.4.4-.6.1-.2.2-.3.2-.4zm-3.6 0h-2.7c.1.1.1.2.2.3.1.2.3.4.4.6.3.4.7.9 1.1 1.3.3.3.7.6 1 .9v-3.1zm-3.7 0H45c.1.2.2.4.4.5.2.3.4.5.7.8.6.6 1.4 1.2 2.2 1.6.6.3 1.2.5 1.9.6-.3-.2-.5-.5-.8-.7-.4-.4-.8-.8-1.1-1.3-.2-.3-.4-.5-.5-.8-.2-.3-.3-.5-.4-.7zm-2.5-8.6h2.5c.1-.2.2-.4.4-.6.1-.2.3-.5.5-.7.3-.5.7-.9 1.1-1.3l.8-.8c-.7.1-1.3.3-1.9.6-.8.4-1.6.9-2.2 1.6-.5.3-.9.8-1.2 1.2zm3.5 0h2.7v-3.2c-.4.3-.7.6-1 1-.4.4-.8.9-1.1 1.3-.1.2-.3.4-.4.6-.1.2-.1.2-.2.3zm3.6 0h2.7c-.1-.1-.1-.2-.2-.3-.1-.2-.2-.4-.4-.6-.3-.5-.7-.9-1.1-1.3l-1-1v3.2zm3.7 0h2.5c-.1-.2-.2-.4-.4-.5-.2-.3-.4-.5-.7-.8-.6-.6-1.4-1.2-2.2-1.6-.6-.3-1.3-.5-1.9-.6l.8.8c.4.4.8.9 1.1 1.3.2.2.3.5.5.7.1.3.2.5.3.7zm3 .9h-2.6c.2.5.3.9.4 1.4.1.5.2 1 .2 1.5h2.7c0-.5-.1-1-.2-1.5-.1-.4-.3-.9-.5-1.4zm-3.6 0H52v2.9h3.8c0-.5-.1-1-.2-1.4-.1-.5-.2-1-.5-1.5zm-4 0H48c-.2.5-.4 1-.5 1.5-.1.5-.2 1-.2 1.4h3.8v-2.9zm-4.1 0h-2.6c-.2.5-.4 1-.5 1.5-.1.5-.2 1-.2 1.5h2.7c0-.5.1-1 .2-1.5s.2-1 .4-1.5z"/><path class="st0" d="M50.5 36.2H36V25.8h1.3V35h13.3V5.2h1.3V27h13.3v-9.2h1.3v10.4H51.8V47h-1.3V36.2z"/><path class="st2" d="M61.1 70.8c-.8-.6-1.7-.2-2.5.4l-4.6 4-.3-1.2-.3-3 .2-6.4.1-6.5c0-1-.8-1.9-1.8-1.9S50.1 57 50 58l-.3 11.1h-.5l.2-2.6c.1-1-.8-1.9-1.8-1.9s-1.8.8-1.9 1.8l-.2 2.8H45l.2-1.8c.1-1-.8-1.9-1.8-1.9s-1.8.8-1.9 1.8l-.2 2h-.7v-1c0-1-.8-1.9-1.8-1.9s-1.8.8-1.9 1.8l-.1 2.2v.4l.4 11.7c.1 1.6.7 2.9 1.4 3.7.2.2.4.4.6.5l-.2 8.5c3.6.8 4.6 2.1 8.4 2.1 0-3.1 3.9-1.6 4.5-1.6l-.6-9.4s2.8-2 3.1-3l7.1-10c.6-.8.4-1.9-.4-2.5z"/><path class="st1" d="M52.9 92.8l-14.6-.2-.4 4.4s.7 2.9 8 2.9 6.2-2.4 7.3-2.5l-.3-4.6z"/><path class="st0" d="M52.5 90.2L38.8 90v2.7l13.7.2v-2.7zm-1.8-32.4l-.1 1.6 2.4.1.1-1.6c0-1.3-2.5-1.3-2.4-.1zm8.9 13.5l-1.3 1.4 1.7 1.8 1.3-1.4c.9-.9-.8-2.7-1.7-1.8z"/><path class="st3" d="M51.2 0c1.9 0 3.4 1.5 3.4 3.4s-1.5 3.4-3.4 3.4-3.4-1.5-3.4-3.4S49.3 0 51.2 0z"/><path class="st4" d="M66.4 14.5c1.9 0 3.4 1.5 3.4 3.4s-1.5 3.4-3.4 3.4-3.4-1.5-3.4-3.4 1.5-3.4 3.4-3.4z"/><path class="st5" d="M37.2 21c2.6 0 4.8 2.1 4.8 4.8 0 2.6-2.1 4.8-4.8 4.8-2.6 0-4.8-2.1-4.8-4.8.1-2.7 2.2-4.8 4.8-4.8z"/><path class="st3" d="M22.5 27.8c1.3 0 2.4 1.1 2.4 2.4 0 1.3-1.1 2.4-2.4 2.4-1.3 0-2.4-1.1-2.4-2.4 0-1.3 1.1-2.4 2.4-2.4z"/><path class="st4" d="M9.5 36.4c2.6 0 4.8 2.1 4.8 4.8 0 2.6-2.1 4.8-4.8 4.8-2.6 0-4.8-2.1-4.8-4.8 0-2.6 2.1-4.8 4.8-4.8z"/><path class="st5" d="M92.9 38.8c1.3 0 2.4 1.1 2.4 2.4 0 1.3-1.1 2.4-2.4 2.4-1.3 0-2.4-1.1-2.4-2.4 0-1.3 1.1-2.4 2.4-2.4z"/><path class="st3" d="M79.9 25.4c2.6 0 4.8 2.1 4.8 4.8 0 2.6-2.1 4.8-4.8 4.8-2.6 0-4.8-2.1-4.8-4.8s2.1-4.8 4.8-4.8z"/></svg>