<svg id="Layer_1" xmlns="http://www.w3.org/2000/svg" viewBox="0 0 100 100"><style>.st0{fill:#5b6770}.st1{fill:#0093b2}.st2{fill:#c5cfda}.st3{fill:#ecf0f1}.st4{fill:#fff}.st5{fill:#fff082}.st6{fill:#ff5050}.st7{fill:#666}.st8{fill:#b8c2cc}</style><path class="st0" d="M5.3 16h89.3c2.9 0 5.3 2.4 5.3 5.3v55H0v-55C0 18.4 2.4 16 5.3 16z"/><path class="st1" d="M3.6 72.7h92.8V21.3c0-.9-.8-1.7-1.7-1.7H5.3c-.9 0-1.7.8-1.7 1.7v51.4z"/><path class="st2" d="M100 76.4v5.8c0 2.9-2.6 5.3-5.9 5.3H5.9c-3.2 0-5.9-2.4-5.9-5.3v-5.8h100z"/><path class="st3" d="M10 41.6c8.5 0 15.6 5.6 18 13.4 3.8 1.7 6.6 5.3 7.2 9.5.7-.2 1.4-.2 2.1-.2 2.1 0 4 .7 5.5 1.9.5-3 3.1-5.3 6.2-5.3.4 0 .8 0 1.1.1.4-.1.8-.1 1.1-.1 3.1 0 5.7 2.3 6.2 5.3 1.5-1.2 3.4-1.9 5.5-1.9.7 0 1.4.1 2.1.2.6-4.2 3.4-7.8 7.2-9.5 2.3-7.7 9.5-13.4 18-13.4 2.2 0 4.4.4 6.4 1.1v30h-93v-30c2-.7 4.2-1.1 6.4-1.1z"/><path class="st4" d="M10 42.7c8.5 0 15.6 5.6 18 13.4 3.8 1.7 6.6 5.3 7.2 9.5.7-.2 1.4-.2 2.1-.2 2.1 0 4 .7 5.5 1.9.5-3 3.1-5.3 6.2-5.3.4 0 .8 0 1.1.1.4-.1.8-.1 1.1-.1 3.1 0 5.7 2.3 6.2 5.3 1.5-1.2 3.4-1.9 5.5-1.9.7 0 1.4.1 2.1.2.6-4.2 3.4-7.8 7.2-9.5 2.3-7.7 9.5-13.4 18-13.4 2.2 0 4.4.4 6.4 1.1v28.9h-93V43.8c2-.7 4.2-1.1 6.4-1.1z"/><path class="st5" d="M59.9 31.3c.2-.2-.9 2.9-1.7 4.1-.8 1.2-1.9 2.3-1.9 2.3l.3-1.3-2.9 2.8.1-1.1s-1.2.8-2.6 1.5c-1.4.7-1.4.6-.8-.8.6-1.5 1.3-2.7 1.3-2.7l-1.1.1 2.5-3.1-1.2.4s1.1-1.1 2.2-2c1.1-.9 4.1-2.1 4-2l1 1 .8.8z"/><path class="st6" d="M67.3 26.3l1.6 5.7-7.3 8.2.4-9.9 5.3-4zm-4.9-4.6l-5.8-1.1-7.7 7.9 9.9-1.2 3.6-5.6z"/><path class="st4" d="M61.8 31.9l-2.3-2.1-2.3-2.1C61.6 22.5 67.2-.8 87 .3c3.3 19.1-20.8 27.3-25.2 31.6z"/><path transform="rotate(-47.094 58.776 30.516)" class="st7" d="M57.7 27.4h2.2v6.3h-2.2z"/><circle class="st4" cx="76.8" cy="11.6" r="3.5"/><circle class="st5" cx="76.8" cy="11.6" r="2.9"/><path class="st4" d="M49 35.1c-3.6 2.6-10 20.8 4.5 30.4 0 0-11-12.9-.6-25.2-1.9.8-5.3 3.8-3.9-5.2z"/><circle class="st4" cx="41" cy="60.7" r="2.1"/><circle class="st4" cx="50.6" cy="56.7" r=".7"/><circle class="st4" cx="42.4" cy="54.5" r=".9"/><circle class="st4" cx="58.4" cy="62.4" r=".9"/><circle class="st8" cx="50" cy="81.7" r="1.8"/><path class="st8" d="M61.5 95.9l8.5 2.7H30l6.8-2.7v-8.4h24.7v8.4z"/><path class="st0" d="M61.5 95.9l-24.7-8.4h24.7v8.4z"/><path class="st2" d="M36.8 95.9h24.7l8.5 2.7v1.2H30v-1.2l6.8-2.7z"/></svg>