<svg id="Layer_1" data-name="Layer 1" xmlns="http://www.w3.org/2000/svg" viewBox="0 0 200 59.53"><defs><style>.cls-1{fill:#fff;}.cls-2{fill:#0092b2;}</style></defs><title>finxi-logo</title><path class="cls-1" d="M78.9,5.64a18.11,18.11,0,0,1-.08,2,4.33,4.33,0,0,1-.25,1.13,1.23,1.23,0,0,1-.38.55.78.78,0,0,1-.46.15,1.72,1.72,0,0,1-.65-.15c-.24-.1-.53-.2-.88-.32a12.6,12.6,0,0,0-1.24-.32,8.53,8.53,0,0,0-1.68-.15,4.88,4.88,0,0,0-2,.36A3.23,3.23,0,0,0,69.94,10a5.33,5.33,0,0,0-.8,2,15.63,15.63,0,0,0-.25,3v3.45h6.86a1.22,1.22,0,0,1,.69.21,1.55,1.55,0,0,1,.53.69,5,5,0,0,1,.32,1.33,17,17,0,0,1,.11,2.06A9.22,9.22,0,0,1,77,26.1q-.42,1-1.22,1H68.89V57.45a1.15,1.15,0,0,1-.25.74,1.85,1.85,0,0,1-.84.53,7.17,7.17,0,0,1-1.64.32q-1.05.11-2.57.11T61,59a7.48,7.48,0,0,1-1.64-.32,1.7,1.7,0,0,1-.84-.53,1.21,1.21,0,0,1-.23-.74V27.09H53.62q-.8,0-1.2-1a9.65,9.65,0,0,1-.4-3.3,17,17,0,0,1,.1-2.06,5.69,5.69,0,0,1,.29-1.33,1.43,1.43,0,0,1,.5-.69,1.3,1.3,0,0,1,.74-.21h4.67V15.35a26.56,26.56,0,0,1,.76-6.71,12,12,0,0,1,2.38-4.79A10,10,0,0,1,65.59,1,16.38,16.38,0,0,1,71.5,0a17.07,17.07,0,0,1,3.11.27,14.41,14.41,0,0,1,2.31.59,3.71,3.71,0,0,1,1.14.59,2,2,0,0,1,.48.8,5.83,5.83,0,0,1,.27,1.35Q78.9,4.42,78.9,5.64Z"/><path class="cls-1" d="M95.47,57.45a1.15,1.15,0,0,1-.25.74,1.86,1.86,0,0,1-.86.53,7.43,7.43,0,0,1-1.62.32,31.28,31.28,0,0,1-5.13,0A7.43,7.43,0,0,1,86,58.72a1.85,1.85,0,0,1-.86-.53,1.14,1.14,0,0,1-.25-.74V20a1.14,1.14,0,0,1,.25-.74,2,2,0,0,1,.86-.55,7.2,7.2,0,0,1,1.62-.36,26.17,26.17,0,0,1,5.13,0,7.2,7.2,0,0,1,1.62.36,2,2,0,0,1,.86.55,1.15,1.15,0,0,1,.25.74Z"/><path class="cls-1" d="M140.1,57.84a1.14,1.14,0,0,1-.25.74,1.84,1.84,0,0,1-.84.53,7.1,7.1,0,0,1-1.62.32q-1,.11-2.54.11t-2.59-.11a7.08,7.08,0,0,1-1.62-.32,1.84,1.84,0,0,1-.84-.53,1.14,1.14,0,0,1-.25-.74V36.44a18.07,18.07,0,0,0-.4-4.29A8.47,8.47,0,0,0,128,29.47a5.16,5.16,0,0,0-2-1.73,6.11,6.11,0,0,0-2.8-.61,7,7,0,0,0-4.08,1.47,22.07,22.07,0,0,0-4.29,4.29V57.84a1.14,1.14,0,0,1-.25.74,1.85,1.85,0,0,1-.86.53,7.43,7.43,0,0,1-1.62.32,31.28,31.28,0,0,1-5.13,0,7.42,7.42,0,0,1-1.62-.32,1.86,1.86,0,0,1-.86-.53,1.15,1.15,0,0,1-.25-.74V20.33a1.3,1.3,0,0,1,.21-.74,1.54,1.54,0,0,1,.76-.53,6.08,6.08,0,0,1,1.41-.32,18.65,18.65,0,0,1,2.17-.1,19.7,19.7,0,0,1,2.23.1,5.11,5.11,0,0,1,1.37.32,1.55,1.55,0,0,1,.69.53,1.29,1.29,0,0,1,.21.74v4.33a23.82,23.82,0,0,1,6.33-5,14.3,14.3,0,0,1,6.71-1.68,14.85,14.85,0,0,1,6.46,1.26,11.31,11.31,0,0,1,4.25,3.43,13.94,13.94,0,0,1,2.33,5.07,29.55,29.55,0,0,1,.72,7Z"/><path class="cls-1" d="M182.54,56.7a2.67,2.67,0,0,1,.32,1.18.92.92,0,0,1-.61.76,5.27,5.27,0,0,1-1.81.4q-1.22.11-3.24.11t-3-.06a8.38,8.38,0,0,1-1.81-.25,2.59,2.59,0,0,1-1-.46,1.76,1.76,0,0,1-.48-.69l-6.94-13.33L157,57.66a1.89,1.89,0,0,1-.46.69,2.36,2.36,0,0,1-.9.46,7.43,7.43,0,0,1-1.7.25q-1.09.06-2.86.06T148.14,59a4.1,4.1,0,0,1-1.6-.4.91.91,0,0,1-.53-.76,2.44,2.44,0,0,1,.36-1.18l10.39-18.46L147.17,20.9a3.28,3.28,0,0,1-.4-1.28.86.86,0,0,1,.53-.82,5,5,0,0,1,1.75-.42q1.2-.13,3.26-.13,1.85,0,3,.06a13.06,13.06,0,0,1,1.75.19,1.9,1.9,0,0,1,.93.4,2.4,2.4,0,0,1,.5.69l6.69,12.53,6.65-12.53a1.62,1.62,0,0,1,.38-.59,1.92,1.92,0,0,1,.8-.42,7.71,7.71,0,0,1,1.49-.25q.95-.08,2.59-.08,1.85,0,3,.08a3.81,3.81,0,0,1,1.6.38.87.87,0,0,1,.46.82,3.32,3.32,0,0,1-.48,1.37l-9.34,17Z"/><path class="cls-1" d="M200,57.45a1.14,1.14,0,0,1-.25.74,1.85,1.85,0,0,1-.86.53,7.44,7.44,0,0,1-1.62.32,31.28,31.28,0,0,1-5.13,0,7.42,7.42,0,0,1-1.62-.32,1.85,1.85,0,0,1-.86-.53,1.14,1.14,0,0,1-.25-.74V20a1.15,1.15,0,0,1,.25-.74,2,2,0,0,1,.86-.55,7.18,7.18,0,0,1,1.62-.36,26.16,26.16,0,0,1,5.13,0,7.2,7.2,0,0,1,1.62.36,2,2,0,0,1,.86.55A1.14,1.14,0,0,1,200,20Z"/><polygon class="cls-1" points="37.88 30.89 32.5 30.89 32.5 25.58 8.56 25.58 8.56 30.89 2.31 30.89 2.31 57.01 8.56 57.01 8.56 59.14 32.5 59.14 32.5 57.01 37.88 57.01 37.88 30.89"/><path class="cls-2" d="M34,18.58H6.62A6.62,6.62,0,0,0,0,25.2V52.55a6.62,6.62,0,0,0,6.62,6.62h3.7C7.37,53.25.44,47,2.93,43.76c2.83-3.73,5.48,4.76,7.2,4S3.51,34.63,9,32.7s3.84,11.64,6.1,11.21-.32-16.59,5.59-15.44c4.52,1-.46,15.48,1,16S27,30.37,31,32.25s-2.84,13.87-4,16.41.23,3.54,1.15,3.07,7.74-8.2,9-2.84c.77,3.41-3.87,7.1-7.43,10.29H34a6.62,6.62,0,0,0,6.62-6.62V25.2A6.62,6.62,0,0,0,34,18.58Z"/></svg>